<?xml version="1.0" encoding="utf-8"?>
<!-- Generator: Adobe Illustrator 15.0.0, SVG Export Plug-In . SVG Version: 6.00 Build 0)  -->
<!DOCTYPE svg PUBLIC "-//W3C//DTD SVG 1.1//EN" "http://www.w3.org/Graphics/SVG/1.1/DTD/svg11.dtd">
<svg version="1.1" id="Layer_1" xmlns="http://www.w3.org/2000/svg" xmlns:xlink="http://www.w3.org/1999/xlink" x="0px" y="0px"
	 width="114px" height="114px" viewBox="0 0 114 114" enable-background="new 0 0 114 114" xml:space="preserve">
<rect fill="#FFFFFF" width="114" height="114"/>
<rect x="17" y="17" width="48" height="16"/>
<rect x="81" y="17" width="16" height="16"/>
<rect x="17" y="33" width="16" height="16"/>
<rect x="65" y="49" width="32" height="16"/>
<rect x="33" y="65" width="32" height="16"/>
<rect x="81" y="65" width="16" height="32"/>
<rect x="17" y="81" width="16" height="16"/>
<rect x="49" y="81" width="16" height="16"/>
<g>
	<rect x="0" y="0" fill="#C7C7C7" width="114" height="2.085"/>
	<rect x="0" y="16" fill="#C7C7C7" width="114" height="2.085"/>
	<rect x="0" y="32" fill="#C7C7C7" width="114" height="2.085"/>
	<rect x="0" y="48" fill="#C7C7C7" width="114" height="2.085"/>
	<rect x="0" y="64" fill="#C7C7C7" width="114" height="2.084"/>
	<rect x="0" y="80" fill="#C7C7C7" width="114" height="2.084"/>
	<rect x="0" y="96" fill="#C7C7C7" width="114" height="2.084"/>
	<rect x="0" y="111.916" fill="#C7C7C7" width="114" height="2.084"/>
</g>
<g>
	<rect fill="#C7C7C7" width="2.085" height="114"/>
	<rect x="16" fill="#C7C7C7" width="2.085" height="114"/>
	<rect x="32" fill="#C7C7C7" width="2.085" height="114"/>
	<rect x="48" fill="#C7C7C7" width="2.085" height="114"/>
	<rect x="64.001" fill="#C7C7C7" width="2.084" height="114"/>
	<rect x="80.001" fill="#C7C7C7" width="2.084" height="114"/>
	<rect x="96.001" fill="#C7C7C7" width="2.084" height="114"/>
	<rect x="111.917" fill="#C7C7C7" width="2.084" height="114"/>
</g>
</svg>
